<?xml version="1.0" encoding="UTF-8"?>
<svg id="Layer_1" data-name="Layer 1" xmlns="http://www.w3.org/2000/svg" viewBox="0 0 900 900">
  <defs>
    <style>
      .cls-1 {
        fill: #f0700f;
      }

      .cls-2 {
        fill: #ededed;
      }
    </style>
  </defs>
  <rect class="cls-1" width="900" height="900" rx="47.11" ry="47.11"/>
  <g>
    <g>
      <polygon class="cls-2" points="497.24 686.06 213.88 450.11 213.84 450.07 213.84 449.89 213.61 213.94 496.97 449.89 497.01 449.93 497.01 450.11 497.24 686.06"/>
      <polygon class="cls-2" points="213.84 450.07 213.88 450.11 213.84 450.11 213.84 450.07"/>
      <polygon class="cls-2" points="497.24 450.11 497.01 450.11 497.01 449.93 497.24 450.11"/>
      <polygon class="cls-2" points="213.61 449.89 213.84 449.89 213.84 450.07 213.61 449.89"/>
      <polygon class="cls-2" points="497.01 449.89 497.01 449.93 496.97 449.89 497.01 449.89"/>
      <polygon class="cls-2" points="780.75 685.96 497.4 450.01 497.35 449.96 497.35 449.78 497.13 213.83 780.48 449.78 780.54 449.82 780.54 450.01 780.75 685.96"/>
      <polygon class="cls-2" points="497.35 449.96 497.4 450.01 497.35 450.01 497.35 449.96"/>
      <polygon class="cls-2" points="780.75 450.01 780.54 450.01 780.54 449.82 780.75 450.01"/>
      <polygon class="cls-2" points="497.13 449.78 497.35 449.78 497.35 449.96 497.13 449.78"/>
      <polygon class="cls-2" points="780.54 449.78 780.54 449.82 780.48 449.78 780.54 449.78"/>
    </g>
    <polygon class="cls-2" points="321.96 585.8 321.96 686.17 119.25 686.17 119.25 585.8 213.72 495.27 321.96 585.8"/>
  </g>
</svg>