<?xml version="1.0" encoding="UTF-8"?>
<svg id="Layer_1" data-name="Layer 1" xmlns="http://www.w3.org/2000/svg" viewBox="0 0 3911.91 840">
  <defs>
    <style>
      .cls-1 {
        fill: #f0700f;
      }

      .cls-2 {
        fill: #f3f3f3;
      }

      .cls-3 {
        fill: #ededed;
      }
    </style>
  </defs>
  <g>
    <rect class="cls-1" width="840" height="840" rx="43.97" ry="43.97"/>
    <g>
      <g>
        <polygon class="cls-3" points="464.09 640.32 199.62 420.1 199.58 420.06 199.58 419.9 199.37 199.67 463.84 419.9 463.88 419.93 463.88 420.1 464.09 640.32"/>
        <polygon class="cls-3" points="199.58 420.06 199.62 420.1 199.58 420.1 199.58 420.06"/>
        <polygon class="cls-3" points="464.09 420.1 463.88 420.1 463.88 419.93 464.09 420.1"/>
        <polygon class="cls-3" points="199.37 419.9 199.58 419.9 199.58 420.06 199.37 419.9"/>
        <polygon class="cls-3" points="463.88 419.9 463.88 419.93 463.84 419.9 463.88 419.9"/>
        <polygon class="cls-3" points="728.7 640.22 464.24 420 464.19 419.97 464.19 419.79 463.99 199.57 728.45 419.79 728.5 419.83 728.5 420 728.7 640.22"/>
        <polygon class="cls-3" points="464.19 419.97 464.24 420 464.19 420 464.19 419.97"/>
        <polygon class="cls-3" points="728.7 420 728.5 420 728.5 419.83 728.7 420"/>
        <polygon class="cls-3" points="463.99 419.79 464.19 419.79 464.19 419.97 463.99 419.79"/>
        <polygon class="cls-3" points="728.5 419.79 728.5 419.83 728.45 419.79 728.5 419.79"/>
      </g>
      <polygon class="cls-3" points="300.5 546.74 300.5 640.43 111.3 640.43 111.3 546.74 199.47 462.25 300.5 546.74"/>
    </g>
  </g>
  <g>
    <path class="cls-2" d="m1211.84,586.73h-39.06l230.64-360.22h82.46v401.14h-82.46v-291.4l19.84,5.58-184.14,285.82h-92.38l-184.14-284.58,19.84-5.58v290.16h-82.46V226.51h82.46l229.4,360.22Z"/>
    <path class="cls-2" d="m1752.48,635.09c-38.86,0-73.06-6.2-102.61-18.6-29.56-12.4-52.6-30.48-69.13-54.25-16.54-23.76-24.8-53.01-24.8-87.73s8.26-64.17,24.8-88.35c16.53-24.18,39.57-42.47,69.13-54.87,29.55-12.4,63.75-18.6,102.61-18.6s72.85,6.2,101.99,18.6,51.97,30.69,68.51,54.87c16.53,24.18,24.8,53.63,24.8,88.35s-8.27,63.97-24.8,87.73c-16.54,23.77-39.37,41.85-68.51,54.25-29.14,12.4-63.14,18.6-101.99,18.6Zm0-62c21.49,0,40.81-3.82,57.97-11.47,17.15-7.64,30.69-18.8,40.61-33.48,9.92-14.67,14.88-32.55,14.88-53.63s-4.96-39.16-14.88-54.25c-9.92-15.08-23.36-26.55-40.3-34.41-16.95-7.85-36.38-11.78-58.28-11.78s-40.92,3.93-58.28,11.78c-17.36,7.86-31.11,19.22-41.23,34.1-10.13,14.88-15.19,33.07-15.19,54.56s4.96,38.96,14.88,53.63c9.92,14.68,23.56,25.84,40.92,33.48,17.36,7.65,36.99,11.47,58.9,11.47Z"/>
    <path class="cls-2" d="m2007.3,319.51h80.6v308.14h-80.6v-308.14Zm223.82-6.82c19.01,0,36.58,2.48,52.7,7.44s30.17,12.61,42.16,22.94c11.98,10.34,21.28,23.46,27.9,39.37,6.61,15.92,9.92,34.83,9.92,56.73v188.48h-80.6v-174.22c0-26.04-6.31-45.15-18.91-57.35-12.61-12.19-33.17-18.29-61.69-18.29-21.5,0-40.92,4.14-58.28,12.4-17.36,8.27-31.42,18.71-42.16,31.31-10.75,12.61-16.95,25.73-18.6,39.37l-.62-31.62c2.06-14.46,6.82-28.52,14.26-42.16,7.44-13.64,17.46-26.14,30.07-37.51,12.6-11.36,27.59-20.35,44.95-26.97,17.36-6.61,36.99-9.92,58.9-9.92Z"/>
    <path class="cls-2" d="m2415.25,319.51h239.32v62.62h-239.32v-62.62Zm79.36-84.32h80.6v392.46h-80.6V235.19Z"/>
    <path class="cls-2" d="m2982.55,525.35h78.12c-3.31,21.08-12.09,39.89-26.35,56.42-14.26,16.54-33.59,29.56-57.97,39.06-24.39,9.5-54.15,14.26-89.28,14.26-39.27,0-73.99-6.31-104.16-18.91-30.18-12.6-53.74-30.89-70.68-54.87-16.95-23.97-25.42-52.9-25.42-86.8s8.26-62.93,24.8-87.11c16.53-24.18,39.57-42.67,69.13-55.49,29.55-12.81,64.17-19.22,103.85-19.22s74.19,6.41,101.06,19.22c26.86,12.82,46.81,32.14,59.83,57.97,13.02,25.84,18.49,58.8,16.43,98.89h-293.88c2.06,15.71,7.95,29.97,17.67,42.78,9.71,12.82,22.94,22.94,39.68,30.38,16.74,7.44,36.68,11.16,59.83,11.16,25.62,0,47.01-4.44,64.17-13.33,17.15-8.88,28.21-20.35,33.17-34.41Zm-101.68-151.28c-29.76,0-53.94,6.51-72.54,19.53-18.6,13.02-30.59,29.04-35.96,48.05h209.56c-2.07-20.66-11.89-37.09-29.45-49.29-17.57-12.19-41.44-18.29-71.61-18.29Z"/>
    <path class="cls-2" d="m3122.05,319.51h80.6v308.14h-80.6v-308.14Zm199.02,66.34c-23.15,0-43.2,4.45-60.14,13.33-16.95,8.89-30.59,19.74-40.92,32.55-10.34,12.82-17.57,25.22-21.7,37.2l-.62-34.1c.41-4.96,2.06-12.29,4.96-22.01,2.89-9.71,7.23-20.25,13.02-31.62,5.78-11.36,13.43-22.32,22.94-32.86,9.5-10.54,21.08-19.11,34.72-25.73,13.64-6.61,29.55-9.92,47.74-9.92v73.16Z"/>
    <path class="cls-2" d="m3463.04,184.35v70.68h-93.62v-70.68h93.62Zm-87.42,135.16h80.6v308.14h-80.6v-308.14Z"/>
    <path class="cls-2" d="m3686.85,635.09c-30.59,0-58.39-6.62-83.39-19.84-25.01-13.22-44.85-31.93-59.52-56.11-14.68-24.18-22.01-52.59-22.01-85.25s7.33-59.83,22.01-84.01c14.67-24.18,34.51-43.09,59.52-56.73,25-13.64,52.8-20.46,83.39-20.46,27.69,0,51.25,4.14,70.68,12.4,19.42,8.27,35.13,19.74,47.12,34.41,11.98,14.68,20.77,31.73,26.35,51.15,5.58,19.43,8.37,40.51,8.37,63.24,0,18.19-2.9,36.79-8.68,55.8-5.79,19.02-14.68,36.48-26.66,52.39-11.99,15.92-27.7,28.73-47.12,38.44-19.43,9.71-42.78,14.57-70.06,14.57Zm26.04-62.62c24.38,0,45.46-4.13,63.24-12.4,17.77-8.26,31.41-19.73,40.92-34.41,9.5-14.67,14.26-31.93,14.26-51.77,0-21.08-4.86-38.95-14.57-53.63-9.72-14.67-23.36-25.93-40.92-33.79-17.57-7.85-38.55-11.78-62.93-11.78-34.31,0-60.97,9.1-79.98,27.28-19.02,18.19-28.52,42.16-28.52,71.92,0,19.84,4.54,37.1,13.64,51.77,9.09,14.68,21.8,26.15,38.13,34.41,16.32,8.27,35.23,12.4,56.73,12.4Zm199.02-252.96v432.14h-80.6v-355.88l2.48-76.26h78.12Z"/>
  </g>
</svg>